<?xml version="1.0" encoding="utf-8"?>
<!-- Generator: Adobe Illustrator 16.0.0, SVG Export Plug-In . SVG Version: 6.00 Build 0)  -->
<!DOCTYPE svg PUBLIC "-//W3C//DTD SVG 1.1//EN" "http://www.w3.org/Graphics/SVG/1.1/DTD/svg11.dtd">
<svg version="1.1" id="Layer_1" xmlns="http://www.w3.org/2000/svg" xmlns:xlink="http://www.w3.org/1999/xlink" x="0px" y="0px"
	 width="100px" height="100px" viewBox="0 0 100 100" enable-background="new 0 0 100 100" xml:space="preserve">
<g>
	<ellipse fill="#63C2CC" cx="50.857" cy="49.062" rx="48.046" ry="48.062"/>
</g>
<path fill="#5296A0" d="M41.656,71.312l33.428,19.269c0,0,11.979-6.3,18.935-20.336c8.054-16.251,3.669-31.823,3.669-31.823
	L76.803,26.4L66.5,61.917l-15.423-2.823L41.656,71.312z"/>
<polygon fill="#5296A0" points="33.798,57.001 39.609,67.609 15.531,53.734 "/>
<polygon fill="#FFFFFF" points="66.5,61.959 43.927,57.984 76.811,26.428 "/>
<polygon fill="#FBFDF7" points="33.745,56.946 15.508,53.727 76.76,26.453 "/>
<polygon fill="#C6C0BE" points="43.924,57.979 41.664,71.314 51.083,59.25 "/>
<polygon fill="#B0B0B5" points="33.745,56.946 41.664,71.314 43.924,57.979 76.784,26.453 "/>
<line fill="none" x1="37.333" y1="3.5" x2="167.236" y2="78.5"/>
<line fill="none" x1="46.833" y1="9" x2="176.737" y2="84"/>
<path fill="none" stroke="#070808" stroke-width="0.25" stroke-miterlimit="10" d="M73.544,63.198"/>
<path fill="none" stroke="#070808" stroke-width="0.25" stroke-miterlimit="10" d="M41.544,57.559"/>
</svg>
