<?xml version="1.0" encoding="utf-8"?>
<!-- Generator: Adobe Illustrator 16.0.0, SVG Export Plug-In . SVG Version: 6.00 Build 0)  -->
<!DOCTYPE svg PUBLIC "-//W3C//DTD SVG 1.1//EN" "http://www.w3.org/Graphics/SVG/1.1/DTD/svg11.dtd">
<svg version="1.1" id="Layer_1" xmlns="http://www.w3.org/2000/svg" xmlns:xlink="http://www.w3.org/1999/xlink" x="0px" y="0px"
	 width="100px" height="100px" viewBox="0 0 100 100" enable-background="new 0 0 100 100" xml:space="preserve">
<path fill="#65C2CC" d="M98,49.986c0,26.506-21.487,47.988-48,47.988c-26.51,0-48-21.482-48-47.988C2,23.483,23.49,2,50,2
	C76.513,2,98,23.483,98,49.986z"/>
<path fill="#5296A0" d="M17.236,79.538l7.751-8.425l7.62-6.27L32,60.939l0.598-6.656l-0.126-18.621l-8.931-7.378l-5.632-5.731
	l17.528,10.076l21.968,2.467l9.28,1.039l6.132-4.75l9.101-8.932l11.164,6.404c0,0,12.572,23.418-2.582,46.878
	C74.605,100.33,49.157,97.937,49.157,97.937L17.236,79.538z"/>
<path fill="#5B5C5C" d="M84.629,50.291c0,0-15.725-22.001-34.428-22.001c-18.526,0-34.604,22.001-34.604,22.001
	s15.904,22.21,34.604,22.21C68.904,72.501,84.629,50.291,84.629,50.291z"/>
<path fill="#F4F4F4" d="M79.145,50.392c0,0-13.314-18.611-29.125-18.611c-15.67,0-29.272,18.611-29.272,18.611
	S34.199,69.174,50.02,69.174C65.83,69.174,79.145,50.392,79.145,50.392z"/>
<path fill="#E19E48" d="M64.597,50.323c0,8.04-6.521,14.56-14.563,14.56c-8.046,0-14.563-6.52-14.563-14.56
	c0-8.043,6.518-14.559,14.563-14.559C58.075,35.764,64.597,42.28,64.597,50.323z"/>
<circle fill="#5B5C5C" cx="50.017" cy="50.308" r="11.325"/>
<path fill="#F4F4F4" d="M51.093,43.647c0,3.998,3.236,7.237,7.234,7.237c3.992,0,7.235-3.239,7.235-7.237
	c0-3.994-3.243-7.232-7.235-7.232C54.329,36.415,51.093,39.654,51.093,43.647z"/>
<rect x="49.81" y="9.249" transform="matrix(-0.6428 0.7661 -0.7661 -0.6428 122.6473 46.2038)" fill="#AFACAC" width="1.481" height="84.899"/>
<rect x="48.507" y="9.249" transform="matrix(0.6428 0.7661 -0.7661 0.6428 57.1964 -19.2588)" fill="#AFACAC" width="1.481" height="84.899"/>
<polyline fill="#AFACAC" points="16.87,77.011 16.25,78.412 17.302,79.099 18.751,77.583 "/>
<polygon fill="#AFACAC" points="82.876,23.578 81.044,24.609 81.145,25.417 82.246,24.985 "/>
<polygon fill="#C6C0BE" points="17.825,78.146 16.87,77.011 81.917,22.443 82.876,23.578 "/>
<polygon fill="#AFACAC" points="16.923,23.578 17.553,24.985 18.786,24.945 18.079,23.801 "/>
<polygon fill="#AFACAC" points="82.926,77.011 83.549,78.412 82.66,78.734 82.025,77.684 "/>
<rect x="49.185" y="7.843" transform="matrix(-0.6425 0.7663 -0.7663 -0.6425 120.5434 44.3472)" fill="#C6C0BE" width="1.482" height="84.904"/>
</svg>
